# Kenney Retro Urban Kit 2.0 CC0 — geometry derived from scaffolding-structure.glb
o scaffolding-structure
v -0.43 0.4 -0.5
v 0.43 0.33 -0.5
v -0.43 0.33 -0.5
v 0.43 0.4 -0.5
v 0.5 0.4 -0.43
v 0.5 0.33 -0.43
v 0.5 0.4 0.43
v 0.5 0.33 0.43
v 0.5 1 0.5
v 0.5 0.93 0.43
v 0.5 0.93 -0.43
v 0.5 0 0.5
v 0.5 0 0.43
v 0.5 1 -0.5
v 0.5 0 -0.5
v 0.5 0 -0.43
v 0.5 0.4 0.43
v 0.5 0.33 -0.43
v 0.5 0.4 -0.43
v 0.5 0.33 0.43
v 0.5 0 -0.43
v 0.5 0 -0.5
v 0.43 0 -0.43
v 0.43 0 -0.5
v -0.43 1 -0.43
v 0.43 1 -0.43
v -0.43 0.93 -0.43
v 0.43 0.93 -0.43
v 0.5 0.93 -0.43
v 0.43 0 -0.43
v 0.5 0 -0.43
v 0.43 0 0.43
v 0.5 0 0.43
v 0.43 0.93 0.43
v 0.5 0.33 0.43
v 0.5 0.4 0.43
v 0.5 0.93 0.43
v 0.5 0 0.5
v 0.43 0 0.5
v 0.5 1 0.5
v 0.43 0.33 0.5
v 0.43 0.4 0.5
v -0.43 0.33 0.5
v 0.43 0.93 0.5
v -0.43 0.93 0.5
v -0.5 1 0.5
v -0.43 0.4 0.5
v -0.5 0 0.5
v -0.43 0 0.5
v 0.43 0.93 -0.43
v 0.43 0.93 -0.5
v -0.43 0.93 -0.43
v -0.43 0.93 -0.5
v 0.5 0.93 0.43
v 0.5 0.93 -0.43
v 0.43 0.93 0.43
v 0.43 0.93 -0.43
v 0.43 1 -0.43
v 0.43 0.93 0.43
v 0.43 1 0.43
v 0.43 0 0.43
v 0.43 0.93 0.43
v 0.43 0 0.5
v 0.43 0.93 0.5
v 0.43 0.33 0.5
v 0.43 0.4 0.5
v -0.43 0 -0.43
v -0.5 0 -0.43
v -0.5 0.33 -0.43
v -0.5 0.4 -0.43
v -0.5 0.93 -0.43
v -0.43 0 -0.43
v -0.43 0 -0.5
v -0.5 0 -0.43
v -0.5 0 -0.5
v -0.43 0 0.5
v -0.43 0 0.43
v -0.5 0 0.5
v -0.5 0 0.43
v -0.43 0.93 -0.5
v -0.43 0.93 -0.43
v -0.43 0 -0.5
v -0.43 0 -0.43
v 0.43 0 -0.5
v 0.43 0.33 -0.5
v 0.43 0 -0.43
v 0.43 0.4 -0.5
v 0.43 0.93 -0.5
v 0.43 0.93 -0.43
v -0.5 0 0.43
v -0.43 0 0.43
v -0.5 0.33 0.43
v -0.43 0.93 0.43
v -0.5 0.4 0.43
v -0.5 0.93 0.43
v -0.43 0.93 0.43
v -0.43 0.93 -0.43
v -0.5 0.93 0.43
v -0.5 0.93 -0.43
v -0.5 0 0.43
v -0.5 0.33 0.43
v -0.5 0 0.5
v -0.5 0.4 0.43
v -0.5 1 0.5
v -0.5 0.4 -0.43
v -0.5 0.33 -0.43
v -0.5 0.93 0.43
v -0.5 0.93 -0.43
v -0.5 1 -0.5
v -0.5 0 -0.43
v -0.5 0 -0.5
v -0.43 0.93 0.43
v -0.43 1 0.43
v -0.43 0.93 0.43
v 0.43 0.93 0.5
v -0.43 0.93 0.5
v -0.43 1 -0.43
v -0.43 0.93 -0.43
v -0.43 1 0.43
v -0.43 0.93 0.43
v -0.43 0 0.43
v -0.43 0.93 0.5
v -0.43 0.4 0.5
v -0.43 0.33 0.5
v -0.43 0 0.5
v 0.5 0 0.5
v 0.5 0 0.43
v 0.43 0 0.5
v 0.43 0 0.43
v -0.5 0 -0.5
v -0.43 0 -0.5
v -0.5 1 -0.5
v -0.43 0.33 -0.5
v -0.43 0.4 -0.5
v -0.43 0.93 -0.5
v 0.43 0.93 -0.5
v 0.5 1 -0.5
v 0.5 0 -0.5
v 0.43 0 -0.5
v -0.43 0.33 0.5
v -0.43 0.4 0.5
v -0.43 1 -0.43
v -0.5 1 -0.5
v 0.43 1 -0.43
v -0.43 1 0.43
v 0.5 1 -0.5
v -0.5 1 0.5
v 0.5 1 0.5
v 0.43 1 0.43
v 0.43 0.93 -0.43
v 0.43 0.93 0.43
v -0.43 0.93 -0.43
v -0.43 0.93 0.43
f 3 2 1
f 4 1 2
f 7 6 5
f 6 7 8
f 7 9 8
f 10 9 7
f 11 9 10
f 12 8 9
f 8 12 13
f 11 14 9
f 14 11 15
f 11 16 15
f 16 11 5
f 16 5 6
f 19 18 17
f 20 17 18
f 23 22 21
f 22 23 24
f 27 26 25
f 26 27 28
f 28 19 29
f 28 18 19
f 30 18 28
f 18 30 31
f 34 33 32
f 33 34 35
f 35 34 36
f 36 34 37
f 40 39 38
f 39 40 41
f 41 40 42
f 42 43 41
f 42 40 44
f 44 40 45
f 46 45 40
f 46 47 45
f 43 42 47
f 46 43 47
f 48 43 46
f 43 48 49
f 52 51 50
f 51 52 53
f 56 55 54
f 55 56 50
f 59 58 57
f 58 59 60
f 63 62 61
f 62 63 64
f 64 63 65
f 64 65 66
f 27 68 67
f 68 27 69
f 69 27 70
f 70 27 71
f 74 73 72
f 73 74 75
f 78 77 76
f 77 78 79
f 81 1 80
f 1 81 3
f 3 81 82
f 82 81 83
f 86 85 84
f 85 86 87
f 87 86 88
f 88 86 89
f 92 91 90
f 91 92 93
f 93 92 94
f 93 94 95
f 98 97 96
f 97 98 99
f 102 101 100
f 101 102 103
f 104 103 102
f 105 101 103
f 101 105 106
f 104 107 103
f 104 108 107
f 109 108 104
f 109 110 108
f 110 109 111
f 108 110 106
f 108 106 105
f 113 59 112
f 59 113 60
f 115 114 56
f 114 115 116
f 119 118 117
f 118 119 120
f 122 121 120
f 121 122 123
f 124 121 123
f 121 124 125
f 128 127 126
f 127 128 129
f 132 131 130
f 131 132 133
f 133 132 134
f 134 2 133
f 134 132 135
f 135 132 136
f 137 136 132
f 137 4 136
f 2 134 4
f 137 2 4
f 138 2 137
f 2 138 139
f 65 140 66
f 141 66 140
f 69 70 92
f 94 92 70
f 144 143 142
f 142 143 145
f 144 146 143
f 147 145 143
f 146 144 148
f 147 149 145
f 148 149 147
f 149 148 144
f 152 151 150
f 151 152 153
f 150 151 152
f 153 152 151
