# Kenney Retro Urban Kit 2.0 CC0 — geometry derived from truck-green-cargo.glb
o truck-green-cargo
v 0.415 0.7384 -0.5841
v 0.415 0 -0.5841
v 0.415 0.7384 0.5841
v 0.415 0 0.5841
v -0.415 0 0.5841
v -0.415 0.7384 0.5841
v 0.415 0 0.5841
v 0.415 0.7384 0.5841
v 0.415 0.7384 -0.5841
v 0.415 0.7384 0.5841
v -0.415 0.7384 -0.5841
v -0.415 0.7384 0.5841
v -0.415 0 -0.5841
v -0.415 0.7384 -0.5841
v -0.415 0 0.5841
v -0.415 0.7384 0.5841
v -0.415 0 -0.5841
v 0.415 0 -0.5841
v -0.415 0.7384 -0.5841
v 0.415 0.7384 -0.5841
v 0.415 0 -0.5841
v -0.415 0 -0.5841
v 0.415 0 0.5841
v -0.415 0 0.5841
f 3 2 1
f 2 3 4
f 7 6 5
f 6 7 8
f 11 10 9
f 10 11 12
f 15 14 13
f 14 15 16
f 19 18 17
f 18 19 20
f 23 22 21
f 22 23 24
