# Kenney Retro Urban Kit 2.0 CC0 — geometry derived from wall-a-garage.glb
o wall-a-garage
v -0.5 0 -0.5
v -0.35 0 -0.5
v -0.5 1 -0.5
v -0.35 0.67 -0.5
v 0.35 0.67 -0.5
v 0.5 1 -0.5
v 0.5 0 -0.5
v 0.35 0 -0.5
v -0.35 0 -0.4
v 0.35 0 -0.4
v -0.35 0.67 -0.4
v 0.35 0.67 -0.4
v 0.5 1 -0.5
v 0.5 1 0.5
v -0.5 1 -0.5
v -0.5 1 0.5
v 0.5 0 0.5
v 0.5 0 -0.5
v -0.5 0 0.5
v 0.35 0 -0.4
v 0.35 0 -0.5
v -0.35 0 -0.4
v -0.35 0 -0.5
v -0.5 0 -0.5
v 0.35 0.67 -0.4
v 0.35 0.67 -0.5
v -0.35 0.67 -0.4
v -0.35 0.67 -0.5
v 0.5 0 0.5
v -0.5 0 0.5
v 0.5 1 0.5
v -0.5 1 0.5
v -0.5 0 -0.5
v -0.5 1 -0.5
v -0.5 0 0.5
v -0.5 1 0.5
v 0.5 1 -0.5
v 0.5 0 -0.5
v 0.35 0 -0.5
v 0.35 0.67 -0.5
v 0.35 0 -0.4
v 0.35 0.67 -0.4
v -0.35 0.67 -0.5
v -0.35 0 -0.5
v -0.35 0.67 -0.4
v -0.35 0 -0.4
f 3 2 1
f 2 3 4
f 4 3 5
f 6 5 3
f 7 5 6
f 5 7 8
f 11 10 9
f 10 11 12
f 15 14 13
f 14 15 16
f 19 18 17
f 18 19 20
f 21 18 20
f 20 19 22
f 22 19 23
f 23 19 24
f 27 26 25
f 26 27 28
f 31 30 29
f 30 31 32
f 35 34 33
f 34 35 36
f 31 38 37
f 38 31 29
f 41 40 39
f 40 41 42
f 45 44 43
f 44 45 46
