<?xml version='1.0' encoding='utf-8'?>
<!-- Generator: imaengine 6.0   -->
<svg xmlns:xlink="http://www.w3.org/1999/xlink" xmlns="http://www.w3.org/2000/svg" viewBox="0,0,2427,1618" style="enable-background:new 0 0 2427 1618;" version="1.1">
<defs/>
<g id="layer0">
<path d="M1617.84,0C1470.65,0 1332.71,39.4133 1213.84,108.156C1312.03,164.986 1397.15,241.796 1463.62,333.125C1390.31,356.945 1324.53,397.289 1270.47,449.688C1360.42,362.617 1482.92,309 1618,309C1894.14,309 2118,532.858 2118,809C2118,1085.14 1894.14,1309 1618,1309C1564.01,1309 1512.1,1300.31 1463.41,1284.47C1396.93,1375.71 1311.85,1452.44 1213.72,1509.22C1115.56,1452.43 1030.45,1375.68 963.969,1284.41C963.843,1284.45 963.719,1284.49 963.594,1284.53C1110.65,1486.56 1348.84,1618 1617.84,1618L1618.16,1618C2064.87,1618 2427,1255.87 2427,809.156L2427,808.844C2427,362.135 2064.87,0 1618.16,0L1617.84,0ZM963.844,333.125C963.76,333.24 963.677,333.354 963.594,333.469C964.476,333.755 965.339,334.084 966.219,334.375C966.318,334.276 966.4,334.161 966.5,334.062C965.607,333.767 964.738,333.417 963.844,333.125ZM1270.25,449.875C1256.7,463.021 1243.9,476.932 1231.91,491.531C1243.91,476.943 1256.69,463.012 1270.25,449.875ZM1230.56,493.188C1224.78,500.287 1219.11,507.491 1213.72,514.906C1213.41,514.485 1213.09,514.077 1212.78,513.656C1212.72,513.773 1212.65,513.883 1212.59,514C1212.9,514.414 1213.23,514.804 1213.53,515.219C1219,507.706 1224.7,500.377 1230.56,493.188Z" fill="#CCBBAA"/>
<path d="M808.844,0C362.135,0 0,362.135 0,808.844L0,809.156C0.000183105,1255.87 362.135,1618 808.844,1618L809.156,1618C956.505,1618 1094.52,1578.4 1213.5,1509.56C1115.27,1452.73 1030.1,1375.9 963.594,1284.53C914.898,1300.35 862.971,1309 809,1309C586.794,1309 398.538,1164 333.438,963.5L823.781,963.5C814.125,913.531 809,861.946 809,809.156L809,808.844C809,756.054 814.125,704.469 823.781,654.5L333.438,654.5C398.538,453.997 586.794,309 809,309C862.971,309 914.898,317.647 963.594,333.469C1030.1,242.103 1115.27,165.274 1213.5,108.438C1094.52,39.5954 956.505,0 809.156,0L808.844,0ZM1213.5,108.438C1256.48,133.304 1296.96,162 1334.47,194.062C1296.96,161.979 1256.48,133.307 1213.5,108.438ZM1334.47,194.062C1344.55,202.682 1354.39,211.559 1364.03,220.656C1354.39,211.559 1344.55,202.682 1334.47,194.062ZM1213.5,1509.56C1256.48,1484.69 1296.96,1456.02 1334.47,1423.94C1296.96,1456 1256.48,1484.7 1213.5,1509.56ZM1334.47,1423.94C1344.55,1415.32 1354.39,1406.44 1364.03,1397.34C1354.39,1406.44 1344.55,1415.32 1334.47,1423.94ZM1368.38,224.781C1377.22,233.246 1385.86,241.925 1394.31,250.781C1385.86,241.921 1377.22,233.251 1368.38,224.781ZM1396.81,253.375C1405.66,262.728 1414.29,272.295 1422.69,282.062C1414.29,272.292 1405.66,262.732 1396.81,253.375ZM1424.44,284.094C1433.11,294.247 1441.52,304.608 1449.69,315.188C1441.52,304.61 1433.11,294.247 1424.44,284.094ZM1450.88,316.688C1455.1,322.19 1459.26,327.761 1463.34,333.375C1459.25,327.759 1455.1,322.193 1450.88,316.688ZM1463.41,333.469C1362.02,366.41 1274.9,430.84 1213.5,515.25C1273.5,597.732 1309,699.198 1309,809C1309,918.802 1273.5,1020.27 1213.5,1102.75C1274.9,1187.16 1362.02,1251.59 1463.41,1284.53C1560.55,1151.07 1618,986.863 1618,809.156L1618,808.844C1618,631.137 1560.55,466.933 1463.41,333.469ZM1463.34,1284.62C1459.26,1290.24 1455.1,1295.81 1450.88,1301.31C1455.1,1295.81 1459.25,1290.24 1463.34,1284.62ZM1449.69,1302.81C1441.52,1313.39 1433.11,1323.75 1424.44,1333.91C1433.11,1323.75 1441.52,1313.39 1449.69,1302.81ZM1422.69,1335.94C1414.29,1345.71 1405.66,1355.27 1396.81,1364.62C1405.66,1355.27 1414.29,1345.71 1422.69,1335.94ZM1394.31,1367.22C1385.86,1376.07 1377.22,1384.75 1368.38,1393.22C1377.22,1384.75 1385.86,1376.08 1394.31,1367.22Z" fill="#CCBBAA"/>
</g>
</svg>
