
<svg xmlns="http://www.w3.org/2000/svg" viewBox="0,0,1618,2272" style="enable-background:new 0 0 1618 2272;" version="1.1">
<path d="M1309,0L1309,827.281C1171.35,718.87 997.809,654 809,654C362.202,654 0,1016.2 0,1463C4.06901e-05,1909.8 362.202,2272 809,2272C997.809,2272 1171.35,2207.13 1309,2098.72L1309,2272L1618,2272L1618,1927L1249.53,1699.28C1165.2,1856.22 999.639,1963 809,1963C586.794,1963 398.538,1818 333.438,1617.5L1284.56,1617.5C1284.51,1617.67 1284.43,1617.83 1284.38,1618L1618,1618L1618,0L1309,0ZM809,963C1031.21,963 1219.46,1108 1284.56,1308.5L333.438,1308.5C398.538,1108 586.794,963 809,963Z" fill="#077799"/>
</svg>
