<svg xmlns="http://www.w3.org/2000/svg" viewBox="0,0,8862,1619" version="1.1" aria-labelledby="logoalt" preserveAspectRatio="xMidYMid meet" shape-rendering="geometricPrecision">
    <title id="logoalt">Kompassen logotyp</title>
    <path d="M935.027,9.94818C852.744,-3.09234 767.858,-3.51434 683.264,9.87872C709.324,101.814 663.079,200.708 572.636,238.171C482.193,275.633 379.564,238.405 332.983,154.97C263.696,205.317 203.971,265.638 155.009,333.042C191.165,353.265 221.104,385.209 238.188,426.453C278.556,523.909 232.272,635.648 134.816,676.016C93.5722,693.099 49.8153,694.515 9.94817,683.25C-3.09236,765.533 -3.51432,850.419 9.87871,935.013C52.2771,922.993 96.1357,926.262 134.796,942.276C179.956,960.982 217.987,996.913 238.171,1045.64C275.633,1136.08 238.405,1238.71 154.97,1285.29C205.316,1354.58 265.638,1414.31 333.042,1463.27C353.267,1427.11 385.209,1397.17 426.453,1380.09C475.181,1359.91 527.48,1361.39 572.64,1380.1C617.801,1398.8 655.832,1434.73 676.016,1483.46C693.099,1524.71 694.515,1568.46 683.25,1608.33C765.533,1621.37 850.419,1621.79 935.013,1608.4C908.953,1516.46 955.199,1417.57 1045.64,1380.11C1094.37,1359.92 1146.67,1361.41 1191.83,1380.11C1230.49,1396.13 1263.81,1424.83 1285.29,1463.31C1354.58,1412.96 1414.31,1352.64 1463.27,1285.24C1427.11,1265.01 1397.17,1233.07 1380.09,1191.82C1339.72,1094.37 1386,982.63 1483.46,942.262C1524.71,925.178 1568.46,923.761 1608.33,935.027C1621.37,852.744 1621.79,767.858 1608.4,683.264C1516.46,709.324 1417.57,663.079 1380.11,572.636C1342.64,482.193 1379.87,379.564 1463.31,332.983C1412.96,263.696 1352.64,203.971 1285.24,155.009C1265.01,191.165 1233.07,221.104 1191.82,238.188C1094.37,278.556 982.63,232.272 942.262,134.816C925.178,93.5722 923.762,49.8153 935.027,9.94818ZM1000.48,347.199C1118.7,396.168 1218.25,490.231 1271.09,617.792C1376.77,872.914 1255.61,1165.42 1000.49,1271.09C745.363,1376.77 452.862,1255.61 347.187,1000.49C241.512,745.363 362.67,452.862 617.792,347.187C745.353,294.35 882.26,298.23 1000.48,347.199Z" fill-rule="evenodd" fill="#FFFFFF" />
    <path d="M809.139,427.139L963.639,809.139L809.139,809.139L654.639,809.139L809.139,427.139Z" fill-rule="evenodd" fill="#E1AF00" />
    <path d="M809.138,1191.14L654.639,809.139L809.139,809.139L963.639,809.139L809.138,1191.14Z" fill-rule="evenodd" fill="#FFFFFF" />
    <path d="M2167.91,333.5L2324.4,333.5L2324.4,740.378L2722.52,333.5L2915.31,333.5L2558.51,690.301L2940.35,1227.38L2745.05,1227.38L2452.1,800.471L2324.4,926.917L2324.4,1227.38L2167.91,1227.38L2167.91,333.5Z" fill="#FFFFFF" />
    <path d="M3302.16,1244.91C3250.42,1244.91 3204.3,1236.35 3163.82,1219.24C3123.34,1202.13 3089.12,1178.56 3061.16,1148.51C3033.21,1118.46 3011.92,1082.57 2997.32,1040.84C2982.71,999.111 2975.41,953.207 2975.41,903.13C2975.41,853.887 2982.71,808.4 2997.32,766.669C3011.92,724.938 3033.21,689.049 3061.16,659.003C3089.12,628.956 3123.34,605.378 3163.82,588.268C3204.3,571.159 3250.42,562.604 3302.16,562.604C3353.91,562.604 3400.02,571.159 3440.5,588.268C3480.98,605.378 3515.2,628.956 3543.16,659.003C3571.12,689.049 3592.4,724.938 3607.01,766.669C3621.61,808.4 3628.92,853.887 3628.92,903.13C3628.92,953.207 3621.61,999.111 3607.01,1040.84C3592.4,1082.57 3571.12,1118.46 3543.16,1148.51C3515.2,1178.56 3480.98,1202.13 3440.5,1219.24C3400.02,1236.35 3353.91,1244.91 3302.16,1244.91L3302.16,1244.91ZM3302.16,1132.23C3333.88,1132.23 3361.42,1125.56 3384.79,1112.2C3408.16,1098.85 3427.36,1081.32 3442.38,1059.62C3457.4,1037.92 3468.46,1013.51 3475.56,986.383C3482.65,959.258 3486.2,931.507 3486.2,903.13C3486.2,875.587 3482.65,848.045 3475.56,820.502C3468.46,792.96 3457.4,768.547 3442.38,747.264C3427.36,725.981 3408.16,708.663 3384.79,695.309C3361.42,681.955 3333.88,675.278 3302.16,675.278C3270.45,675.278 3242.9,681.955 3219.53,695.309C3196.17,708.663 3176.97,725.981 3161.95,747.264C3146.92,768.547 3135.86,792.96 3128.77,820.502C3121.68,848.045 3118.13,875.587 3118.13,903.13C3118.13,931.507 3121.68,959.258 3128.77,986.383C3135.86,1013.51 3146.92,1037.92 3161.95,1059.62C3176.97,1081.32 3196.17,1098.85 3219.53,1112.2C3242.9,1125.56 3270.45,1132.23 3302.16,1132.23L3302.16,1132.23Z" fill="#FFFFFF" />
    <path d="M3747.85,580.131L3883.06,580.131L3883.06,670.27L3886.82,670.27C3897.67,654.412 3909.35,639.806 3921.87,626.452C3934.39,613.099 3948.37,601.831 3963.81,592.65C3979.25,583.469 3996.99,576.166 4017.02,570.741C4037.05,565.316 4060,562.604 4085.87,562.604C4125.1,562.604 4161.61,571.367 4195.42,588.894C4229.22,606.422 4253.21,633.547 4267.4,670.27C4291.61,636.885 4319.57,610.595 4351.28,591.398C4383,572.202 4422.64,562.604 4470.22,562.604C4538.66,562.604 4591.86,579.296 4629.84,612.681C4667.81,646.066 4686.8,701.986 4686.8,780.44L4686.8,1227.38L4544.08,1227.38L4544.08,849.297C4544.08,823.423 4543.25,799.845 4541.58,778.562C4539.91,757.28 4535.11,738.918 4527.18,723.477C4519.25,708.037 4507.36,696.143 4491.5,687.797C4475.64,679.451 4453.94,675.278 4426.4,675.278C4377.99,675.278 4342.94,690.301 4321.24,720.348C4299.54,750.394 4288.69,792.96 4288.69,848.045L4288.69,1227.38L4145.97,1227.38L4145.97,811.739C4145.97,766.669 4137.83,732.658 4121.55,709.706C4105.28,686.754 4075.44,675.278 4032.04,675.278C4013.68,675.278 3995.94,679.034 3978.83,686.545C3961.72,694.057 3946.7,704.907 3933.76,719.096C3920.83,733.284 3910.39,750.811 3902.46,771.677C3894.54,792.542 3890.57,816.329 3890.57,843.037L3890.57,1227.38L3747.85,1227.38L3747.85,580.131Z" fill="#FFFFFF" />
    <path d="M4840.79,580.131L4976,580.131L4976,667.766L4978.5,667.766C4998.53,630.208 5026.49,603.292 5062.38,587.017C5098.27,570.741 5137.08,562.604 5178.81,562.604C5229.72,562.604 5274.17,571.576 5312.14,589.52C5350.12,607.465 5381.62,632.086 5406.66,663.385C5431.7,694.683 5450.48,731.198 5463,772.929C5475.52,814.66 5481.78,859.312 5481.78,906.886C5481.78,950.286 5476.14,992.434 5464.88,1033.33C5453.61,1074.23 5436.5,1110.32 5413.55,1141.62C5390.6,1172.92 5361.59,1197.96 5326.54,1216.74C5291.48,1235.52 5250.17,1244.91 5202.6,1244.91C5181.73,1244.91 5160.87,1243.03 5140,1239.27C5119.14,1235.52 5099.1,1229.47 5079.91,1221.12C5060.71,1212.77 5042.98,1202.13 5026.7,1189.2C5010.43,1176.26 4996.86,1161.03 4986.01,1143.5L4983.51,1143.5L4983.51,1466.5L4840.79,1466.5L4840.79,580.131ZM5339.06,904.382C5339.06,875.17 5335.3,846.793 5327.79,819.25C5320.28,791.708 5309.01,767.295 5293.99,746.012C5278.97,724.729 5260.19,707.62 5237.65,694.683C5215.12,681.746 5189.24,675.278 5160.03,675.278C5099.94,675.278 5054.66,696.143 5024.2,737.875C4993.73,779.606 4978.5,835.108 4978.5,904.382C4978.5,936.932 4982.47,967.187 4990.39,995.147C4998.32,1023.11 5010.22,1047.1 5026.08,1067.13C5041.93,1087.16 5060.92,1103.02 5083.04,1114.71C5105.16,1126.39 5130.82,1132.23 5160.03,1132.23C5192.58,1132.23 5220.12,1125.56 5242.66,1112.2C5265.19,1098.85 5283.76,1081.53 5298.37,1060.25C5312.98,1038.96 5323.41,1014.76 5329.67,987.635C5335.93,960.51 5339.06,932.759 5339.06,904.382L5339.06,904.382Z" fill="#FFFFFF" />
    <path d="M6144.05,1083.41C6144.05,1100.94 6146.35,1113.45 6150.94,1120.97C6155.53,1128.48 6164.5,1132.23 6177.85,1132.23C6182.03,1132.23 6187.04,1132.23 6192.88,1132.23C6198.72,1132.23 6205.4,1131.4 6212.91,1129.73L6212.91,1228.63C6207.9,1230.3 6201.43,1232.18 6193.5,1234.27C6185.57,1236.35 6177.44,1238.23 6169.09,1239.9C6160.74,1241.57 6152.4,1242.82 6144.05,1243.66C6135.71,1244.49 6128.61,1244.91 6122.77,1244.91C6093.56,1244.91 6069.35,1239.07 6050.16,1227.38C6030.96,1215.7 6018.44,1195.25 6012.6,1166.04C5984.22,1193.58 5949.38,1213.61 5908.06,1226.13C5866.75,1238.65 5826.9,1244.91 5788.5,1244.91C5759.29,1244.91 5731.33,1240.94 5704.62,1233.01C5677.91,1225.09 5654.34,1213.4 5633.89,1197.96C5613.44,1182.52 5597.17,1162.91 5585.06,1139.12C5572.96,1115.33 5566.91,1087.58 5566.91,1055.87C5566.91,1015.8 5574.21,983.254 5588.82,958.215C5603.43,933.176 5622.62,913.563 5646.41,899.374C5670.19,885.185 5696.9,874.961 5726.53,868.702C5756.16,862.442 5786,857.643 5816.05,854.304C5841.92,849.297 5866.54,845.75 5889.91,843.663C5913.28,841.576 5933.94,838.029 5951.88,833.022C5969.82,828.014 5984.01,820.294 5994.45,809.861C6004.88,799.428 6010.09,783.779 6010.09,762.913C6010.09,744.552 6005.71,729.528 5996.95,717.844C5988.19,706.159 5977.34,697.187 5964.4,690.927C5951.46,684.667 5937.07,680.494 5921.21,678.408C5905.35,676.321 5890.33,675.278 5876.14,675.278C5836.08,675.278 5803.11,683.624 5777.24,700.317C5751.36,717.009 5736.76,742.882 5733.42,777.936L5590.7,777.936C5593.2,736.205 5603.22,701.568 5620.74,674.026C5638.27,646.483 5660.6,624.366 5687.72,607.673C5714.85,590.981 5745.52,579.296 5779.74,572.619C5813.96,565.942 5849.01,562.604 5884.9,562.604C5916.62,562.604 5947.92,565.942 5978.8,572.619C6009.68,579.296 6037.43,590.146 6062.05,605.17C6086.67,620.193 6106.49,639.598 6121.52,663.385C6136.54,687.171 6144.05,716.174 6144.05,750.394L6144.05,1083.41ZM6001.33,903.13C5979.63,917.318 5952.92,925.873 5921.21,928.794C5889.49,931.716 5857.78,936.097 5826.06,941.94C5811.04,944.444 5796.43,947.991 5782.24,952.581C5768.05,957.172 5755.54,963.431 5744.68,971.36C5733.83,979.289 5725.28,989.722 5719.02,1002.66C5712.76,1015.6 5709.63,1031.24 5709.63,1049.61C5709.63,1065.46 5714.22,1078.82 5723.4,1089.67C5732.58,1100.52 5743.64,1109.07 5756.58,1115.33C5769.52,1121.59 5783.7,1125.97 5799.14,1128.48C5814.58,1130.98 5828.56,1132.23 5841.08,1132.23C5856.94,1132.23 5874.05,1130.15 5892.41,1125.97C5910.77,1121.8 5928.09,1114.71 5944.37,1104.69C5960.64,1094.68 5974.21,1081.95 5985.06,1066.51C5995.91,1051.07 6001.33,1032.08 6001.33,1009.54L6001.33,903.13Z" fill="#FFFFFF" />
    <path d="M6405.71,1019.56C6409.88,1061.29 6425.74,1090.5 6453.28,1107.2C6480.82,1123.89 6513.79,1132.23 6552.18,1132.23C6565.54,1132.23 6580.77,1131.19 6597.88,1129.1C6614.99,1127.02 6631.05,1123.05 6646.08,1117.21C6661.1,1111.37 6673.41,1102.81 6683.01,1091.55C6692.61,1080.28 6696.99,1065.46 6696.15,1047.1C6695.32,1028.74 6688.64,1013.72 6676.12,1002.03C6663.6,990.348 6647.54,980.958 6627.92,973.864C6608.31,966.77 6585.98,960.719 6560.95,955.711C6535.91,950.703 6510.45,945.278 6484.58,939.436C6457.87,933.594 6432.2,926.499 6407.58,918.153C6382.96,909.807 6360.85,898.539 6341.23,884.351C6321.62,870.162 6305.97,852.009 6294.28,829.892C6282.6,807.774 6276.76,780.44 6276.76,747.89C6276.76,712.836 6285.31,683.415 6302.42,659.629C6319.53,635.842 6341.23,616.646 6367.52,602.04C6393.81,587.434 6423.02,577.21 6455.16,571.367C6487.29,565.525 6517.96,562.604 6547.17,562.604C6580.56,562.604 6612.48,566.151 6642.95,573.245C6673.41,580.34 6700.95,591.816 6725.58,607.673C6750.2,623.531 6770.64,644.188 6786.92,669.644C6803.19,695.1 6813.42,725.773 6817.59,761.661L6668.61,761.661C6661.93,727.442 6646.29,704.49 6621.66,692.805C6597.04,681.12 6568.87,675.278 6537.16,675.278C6527.14,675.278 6515.25,676.112 6501.48,677.782C6487.71,679.451 6474.77,682.581 6462.67,687.171C6450.57,691.762 6440.34,698.439 6432,707.202C6423.65,715.966 6419.48,727.442 6419.48,741.63C6419.48,759.157 6425.53,773.346 6437.63,784.196C6449.73,795.046 6465.59,804.018 6485.2,811.113C6504.82,818.207 6527.14,824.258 6552.18,829.266C6577.22,834.273 6603.09,839.699 6629.8,845.541C6655.68,851.383 6681.13,858.478 6706.17,866.824C6731.21,875.17 6753.54,886.437 6773.15,900.626C6792.76,914.815 6808.62,932.759 6820.72,954.459C6832.82,976.159 6838.87,1002.87 6838.87,1034.58C6838.87,1072.98 6830.11,1105.53 6812.58,1132.23C6795.06,1158.94 6772.31,1180.64 6744.35,1197.33C6716.39,1214.03 6685.3,1226.13 6651.08,1233.64C6616.87,1241.15 6583.06,1244.91 6549.68,1244.91C6508.78,1244.91 6471.02,1240.32 6436.38,1231.14C6401.74,1221.96 6371.7,1207.98 6346.24,1189.2C6320.78,1170.42 6300.75,1147.05 6286.15,1119.09C6271.54,1091.13 6263.82,1057.95 6262.99,1019.56L6405.71,1019.56Z" fill="#FFFFFF" />
    <path d="M7055.46,1019.56C7059.63,1061.29 7075.49,1090.5 7103.03,1107.2C7130.58,1123.89 7163.54,1132.23 7201.94,1132.23C7215.29,1132.23 7230.52,1131.19 7247.63,1129.1C7264.74,1127.02 7280.81,1123.05 7295.83,1117.21C7310.85,1111.37 7323.16,1102.81 7332.76,1091.55C7342.36,1080.28 7346.74,1065.46 7345.91,1047.1C7345.07,1028.74 7338.4,1013.72 7325.88,1002.03C7313.36,990.348 7297.29,980.958 7277.68,973.864C7258.06,966.77 7235.74,960.719 7210.7,955.711C7185.66,950.703 7160.2,945.278 7134.33,939.436C7107.62,933.594 7081.96,926.499 7057.34,918.153C7032.72,909.807 7010.6,898.539 6990.98,884.351C6971.37,870.162 6955.72,852.009 6944.04,829.892C6932.35,807.774 6926.51,780.44 6926.51,747.89C6926.51,712.836 6935.07,683.415 6952.18,659.629C6969.28,635.842 6990.98,616.646 7017.28,602.04C7043.57,587.434 7072.78,577.21 7104.91,571.367C7137.04,565.525 7167.72,562.604 7196.93,562.604C7230.31,562.604 7262.24,566.151 7292.7,573.245C7323.16,580.34 7350.71,591.816 7375.33,607.673C7399.95,623.531 7420.4,644.188 7436.67,669.644C7452.95,695.1 7463.17,725.773 7467.35,761.661L7318.37,761.661C7311.69,727.442 7296.04,704.49 7271.42,692.805C7246.8,681.12 7218.63,675.278 7186.91,675.278C7176.9,675.278 7165,676.112 7151.23,677.782C7137.46,679.451 7124.52,682.581 7112.42,687.171C7100.32,691.762 7090.1,698.439 7081.75,707.202C7073.4,715.966 7069.23,727.442 7069.23,741.63C7069.23,759.157 7075.28,773.346 7087.38,784.196C7099.49,795.046 7115.34,804.018 7134.96,811.113C7154.57,818.207 7176.9,824.258 7201.94,829.266C7226.97,834.273 7252.85,839.699 7279.56,845.541C7305.43,851.383 7330.89,858.478 7355.92,866.824C7380.96,875.17 7403.29,886.437 7422.9,900.626C7442.52,914.815 7458.37,932.759 7470.48,954.459C7482.58,976.159 7488.63,1002.87 7488.63,1034.58C7488.63,1072.98 7479.87,1105.53 7462.34,1132.23C7444.81,1158.94 7422.07,1180.64 7394.11,1197.33C7366.15,1214.03 7335.06,1226.13 7300.84,1233.64C7266.62,1241.15 7232.82,1244.91 7199.43,1244.91C7158.54,1244.91 7120.77,1240.32 7086.13,1231.14C7051.5,1221.96 7021.45,1207.98 6995.99,1189.2C6970.54,1170.42 6950.51,1147.05 6935.9,1119.09C6921.29,1091.13 6913.57,1057.95 6912.74,1019.56L7055.46,1019.56Z" fill="#FFFFFF" />
    <path d="M8041.98,846.793C8040.31,824.258 8035.51,802.558 8027.59,781.692C8019.66,760.827 8008.81,742.674 7995.04,727.233C7981.26,711.793 7964.57,699.273 7944.96,689.675C7925.34,680.077 7903.44,675.278 7879.23,675.278C7854.19,675.278 7831.45,679.66 7811,688.423C7790.55,697.187 7773.03,709.289 7758.42,724.729C7743.81,740.17 7732.13,758.323 7723.37,779.188C7714.6,800.054 7709.8,822.589 7708.97,846.793L8041.98,846.793ZM7708.97,940.688C7708.97,965.726 7712.52,989.931 7719.61,1013.3C7726.7,1036.67 7737.35,1057.12 7751.54,1074.64C7765.72,1092.17 7783.67,1106.15 7805.37,1116.58C7827.07,1127.02 7852.94,1132.23 7882.99,1132.23C7924.72,1132.23 7958.31,1123.26 7983.77,1105.32C8009.22,1087.37 8028.21,1060.46 8040.73,1024.57L8175.94,1024.57C8168.43,1059.62 8155.49,1090.92 8137.13,1118.46C8118.77,1146 8096.65,1169.17 8070.78,1187.94C8044.9,1206.72 8015.9,1220.91 7983.77,1230.51C7951.64,1240.11 7918.04,1244.91 7882.99,1244.91C7832.08,1244.91 7787.01,1236.56 7747.78,1219.87C7708.55,1203.18 7675.37,1179.81 7648.25,1149.76C7621.12,1119.71 7600.68,1083.83 7586.91,1042.09C7573.13,1000.36 7566.25,954.459 7566.25,904.382C7566.25,858.478 7573.55,814.869 7588.16,773.555C7602.76,732.241 7623.63,695.935 7650.75,664.636C7677.88,633.338 7710.64,608.508 7749.03,590.146C7787.42,571.785 7830.82,562.604 7879.23,562.604C7930.14,562.604 7975.84,573.245 8016.32,594.528C8056.8,615.811 8090.39,643.98 8117.1,679.034C8143.81,714.088 8163.21,754.358 8175.31,799.845C8187.42,845.332 8190.55,892.28 8184.7,940.688L7708.97,940.688Z" fill="#FFFFFF" />
    <path d="M8293.62,580.131L8428.83,580.131L8428.83,675.278L8431.33,677.782C8453.04,641.893 8481.41,613.724 8516.47,593.276C8551.52,572.828 8590.33,562.604 8632.9,562.604C8703.84,562.604 8759.76,580.966 8800.66,617.689C8841.55,654.412 8862,709.497 8862,782.944L8862,1227.38L8719.28,1227.38L8719.28,820.502C8717.61,769.59 8706.76,732.658 8686.73,709.706C8666.7,686.754 8635.4,675.278 8592.83,675.278C8568.63,675.278 8546.93,679.66 8527.73,688.423C8508.54,697.187 8492.26,709.289 8478.91,724.729C8465.55,740.17 8455.12,758.323 8447.61,779.188C8440.1,800.054 8436.34,822.171 8436.34,845.541L8436.34,1227.38L8293.62,1227.38L8293.62,580.131Z" fill="#FFFFFF" />
</svg>