<svg xmlns="http://www.w3.org/2000/svg" viewBox="0 0 4854 2427" role="img" aria-labelledby="title" shape-rendering="geometricPrecision">
    <title id="title">Enkel design logotyp</title>
    <style>
        :root {
            color-scheme: light dark;
        }

        .logoEPath {
            fill: #888888;
        }

        .logoDPath {
            fill: #227799;
        }
    </style>
    <g transform="translate(1228.5, 404.5)">

        <path class="logoEPath" d="M809,0C362.202,0 0,362.202 0,809C0,1255.8 362.202,1618 809,1618C1072.1,1618 1305.78,1492.32 1453.53,1297.81C1341.73,1279.11 1237.79,1237.38 1146.53,1177.81C1057.58,1259.26 939.11,1309 809,1309C532.858,1309 309,1085.14 309,809C309,535.311 528.933,313.117 801.688,309.188C828.239,199.391 877.23,98.3904 943.469,11.1875C899.728,3.86857 854.82,0 809,0ZM779.031,501.469C622.442,516.544 500,648.458 500,809C500,979.656 638.344,1118 809,1118C880.244,1118 945.796,1093.82 998.062,1053.31C862.604,908.944 779.412,714.969 779.031,501.469Z" />
        <path class="logoDPath" d="M1588,0C1324.9,0 1091.22,125.677 943.469,320.188C1055.27,338.894 1159.21,380.623 1250.47,440.188C1339.42,358.741 1457.89,309 1588,309C1864.14,309 2088,532.858 2088,809C2088,1082.69 1868.07,1304.88 1595.31,1308.81C1568.76,1418.61 1519.77,1519.61 1453.53,1606.81C1497.27,1614.13 1542.18,1618 1588,1618C2034.8,1618 2397,1255.8 2397,809C2397,362.202 2034.8,0 1588,0ZM1588,500C1516.76,500 1451.2,524.18 1398.94,564.688C1534.4,709.056 1617.59,903.031 1617.97,1116.53C1774.56,1101.46 1897,969.542 1897,809C1897,638.344 1758.66,500 1588,500Z" />
    </g>
</svg>