<svg width="589" height="490" viewBox="0 0 589 490" fill="none" xmlns="http://www.w3.org/2000/svg">
<path d="M573.326 0L490.224 140.758L472.328 171.084C471.433 172.601 466.926 180.623 466.133 181.361C464.695 184.071 463.029 186.908 461.416 189.523C456.823 196.966 452.647 204.953 447.899 212.269C441.293 224.478 432.628 238.261 425.512 250.341L416.669 265.357C415.406 267.498 412.939 271.923 411.518 273.794C406.894 283.205 399.107 293.684 394.158 302.995L282.008 302.975L250.761 302.96C239.138 302.957 226.867 301.307 217.987 310.429C211.362 317.235 210.482 323.59 210.476 332.653L210.516 489.31C204.917 489.249 199.318 489.227 193.718 489.238C190.565 489.253 185.913 489.442 182.865 489.241L121.398 489.307C113.545 488.941 104.074 489.269 96.0934 489.264C80.8905 489.129 65.6866 489.097 50.4831 489.163C47.7006 489.163 29.1036 489.324 27.3796 488.941C12.348 488.064 2.84001 477.267 2.4118 462.607C2.22647 456.261 1.99755 450.093 1.99481 443.715L1.98895 413.518L1.98993 304.186L2.01825 273.688L2.00067 212.15L2.0163 181.363C1.55578 148.195 1.9898 113.851 1.98505 80.5957L1.987 47.2607C1.99336 29.9964 -0.42028 7.65096 21.0681 1.59277C24.5898 0.599925 27.5977 0.54888 31.1384 0H573.326Z" fill="#F0343E"/>
<path d="M262.919 335.574C286.502 324.917 313.607 339.048 315.667 365.259C316.115 370.981 316.009 376.508 316.009 382.245L315.995 408.243L316.009 436.844C316.015 446.624 316.774 457.566 313.326 466.811C308.652 479.339 296.01 487.621 283.127 489.697H274.131C270.983 488.538 267.775 487.825 264.65 486.562C256.185 483.172 249.311 476.714 245.401 468.476C241.295 459.61 242.062 449.232 242.069 439.65L242.077 413.62L242.07 383.772C242.069 374.571 241.352 363.985 244.542 355.341C247.723 346.527 254.358 339.39 262.919 335.574ZM290.281 358.654C286.573 355.026 281.487 354.062 276.494 354.654C261.784 358.335 264.337 370.177 264.333 382.603L264.329 406.188L264.333 435.447C264.335 442.006 264.133 448.497 264.693 455.036C265.485 464.272 273.041 467.956 281.536 467.49C285.93 466.59 289.361 465.161 291.998 461.253C292.766 460.114 293.387 458.941 293.488 457.566C293.963 451.088 293.859 444.471 293.862 437.975L293.864 406.686L293.856 380.052C293.85 374.433 293.97 368.696 293.24 363.117C293.076 361.878 291.172 359.528 290.281 358.654Z" fill="#FEFEFE"/>
<path d="M503.581 333.551L524.984 333.539C526.013 337.154 528.101 342.48 529.413 346.123L537.721 369.257C544.598 388.426 551.641 409.156 558.935 428.066L558.828 333.571C566.139 333.45 573.694 333.551 581.022 333.562L581.039 488.522C574.045 488.565 567.053 488.565 560.059 488.522C558.086 482.098 554.813 473.833 552.469 467.404L535.19 419.994C532.271 411.974 528.351 402.056 525.884 394.013C525.346 403.393 525.74 417.046 525.74 426.691L525.749 488.525H503.583C503.27 471.064 503.563 452.531 503.563 434.984L503.581 333.551Z" fill="#FEFEFE"/>
<path d="M356.652 333.527C365.217 333.522 374.964 333.027 383.149 335.463C388.128 336.901 392.66 339.584 396.315 343.259C406.419 353.251 407.396 366.637 407.5 380.109C407.609 394.154 406.534 407.862 396.051 418.372C385.326 429.13 371.74 427.921 357.72 427.999C357.582 431.605 357.653 435.609 357.645 439.246L357.671 488.527C350.274 488.565 342.877 488.562 335.479 488.519L335.503 333.554L356.652 333.527ZM381.269 357.844C376.184 353.093 364.254 354.669 357.731 354.444C357.346 371.911 357.952 389.677 357.604 407.108C365.859 407.166 375.666 408.336 381.953 402.786C384.308 400.103 386.154 395.539 386.203 391.934C386.333 382.298 388.855 364.932 381.269 357.844Z" fill="#FEFEFE"/>
<path d="M423.93 333.559C445.541 333.2 468.428 333.476 490.115 333.577C490.144 340.533 490.138 347.489 490.095 354.448L446.196 354.422L446.191 399.948C458.948 399.87 471.709 399.882 484.47 399.991L484.476 420.741L446.199 420.764L446.176 449.31L446.202 466.308C460.723 466.305 475.62 466.13 490.11 466.374C490.187 473.718 490.121 481.169 490.118 488.522C468.318 488.703 445.739 488.738 423.951 488.496C423.698 471.116 423.93 453.103 423.928 435.657L423.93 333.559Z" fill="#FEFEFE"/>
<path d="M563.787 212C568.662 212.058 573.533 212.062 578.405 212.011C577.663 214.152 576.876 216.315 576.027 218.416C571.731 229.055 567.937 240.057 563.482 250.618C565.734 249.973 568.216 249.574 570.562 249.767C574.031 250.024 577.241 251.705 579.427 254.41C584.02 259.999 583.196 269.11 583.263 275.969C583.366 286.313 584.042 293.507 575.325 300.526C574.408 301.124 573.453 301.665 572.47 302.148C567.845 304.388 561.765 304.636 556.931 302.937C552.131 301.266 548.208 297.734 546.048 293.136C543.238 287.167 543.727 269.815 545.096 263.198C545.979 258.932 549.914 249.169 551.613 244.626L563.787 212ZM563.001 261.479C556.74 263.36 557.241 268.799 557.494 274.421C557.796 281.146 555.084 292.222 565.396 291.544C571.542 289.051 570.669 283.554 570.505 277.708C570.318 270.918 572.584 261.683 563.001 261.479Z" fill="#F0343E"/>
<path d="M515.355 211.484C534.345 211.13 537.839 230.402 534.566 245.499C533.485 250.499 528.924 257.809 526.568 262.547C521.86 272.009 516.571 281.317 511.935 290.851C519.804 290.799 527.673 290.822 535.538 290.912L535.533 303.53L500.144 303.512L496.405 303.487C496.244 290.897 495.64 293.189 501.366 282.245L514.009 258.409C515.947 254.765 519.2 249.045 520.742 245.305C521.512 243.441 522.03 241.481 522.28 239.478C522.732 235.859 523.065 229.648 520.592 226.691C519.442 225.326 517.765 224.513 515.982 224.454C514.302 224.381 512.666 225.014 511.475 226.2C508.76 228.925 509.505 234.921 509.58 238.669L496.405 238.658C496.339 231.106 495.959 224.848 501.13 218.617C504.906 214.063 509.551 212.005 515.355 211.484Z" fill="#F0343E"/>
<path d="M475.376 212.261L485.669 212.261C485.511 219.763 485.712 227.393 485.574 234.948L475.385 234.922L475.376 212.261Z" fill="#F0343E"/>
<path d="M213.699 0H573.326L490.225 140.757L472.327 171.084C471.433 172.602 466.926 180.622 466.133 181.361L213.687 181.308L213.699 0Z" fill="#FEFEFE"/>
<path d="M2.01868 273.688C30.4296 274.018 59.0096 273.566 87.432 273.75C98.6118 273.823 110.077 273.566 121.228 273.817L121.246 418.516L121.245 463.424C121.245 471.717 121.026 481.117 121.398 489.307C113.545 488.942 104.074 489.27 96.0936 489.264C80.8906 489.129 65.6867 489.097 50.4832 489.163C47.701 489.163 29.1029 489.324 27.3794 488.942C12.3477 488.065 2.83978 477.267 2.41169 462.607C2.22635 456.261 1.99724 450.093 1.99451 443.715L1.98859 413.518L1.99004 304.185L2.01868 273.688Z" fill="#FEFEFE"/>
<path d="M87.432 273.75C59.0096 273.566 30.4296 274.018 2.0187 273.688L1.99005 304.185C18.2217 304.042 34.4542 304.004 50.6862 304.067C63.6606 304.067 77.5033 303.835 90.417 304.136V489.227C98.3978 489.232 113.545 488.942 121.398 489.307C121.026 481.117 121.245 471.717 121.245 463.424L121.246 418.516L121.228 273.817C110.077 273.566 98.6118 273.823 87.432 273.75Z" fill="#155DB9"/>
<path d="M31.1382 0H90.4345L90.3775 181.353L32.1022 181.344C22.4576 181.344 11.569 181.096 2.01671 181.363C1.5562 148.194 1.9896 113.851 1.98484 80.5958L1.98676 47.2608C1.99313 29.9964 -0.420452 7.65053 21.0683 1.59248C24.5901 0.599632 27.5975 0.54888 31.1382 0Z" fill="#FEFEFE"/>
<path d="M182.868 0H213.699L213.687 181.308L466.133 181.361C464.695 184.071 463.029 186.907 461.416 189.523C456.823 196.966 452.647 204.953 447.899 212.268C446.073 212.076 441.356 212.187 439.423 212.188L423.35 212.203L370.161 212.203L247.787 212.198C226.246 212.198 204.32 212.438 182.818 212.154L182.806 75.5894C182.805 50.5221 182.567 25.0408 182.868 0Z" fill="#155DB9"/>
<path d="M182.727 273.746H333.887C359.58 273.745 385.861 273.455 411.518 273.794C406.893 283.205 399.108 293.684 394.158 302.995L282.008 302.975L250.762 302.96C239.138 302.957 226.867 301.307 217.987 310.428C211.362 317.235 210.482 323.59 210.476 332.654L210.517 489.31C204.917 489.249 199.318 489.226 193.718 489.238C190.564 489.252 185.913 489.442 182.865 489.241C182.627 471.202 182.807 452.787 182.807 434.728L182.81 335.115L182.814 296.355C182.818 289.054 182.983 280.992 182.727 273.746Z" fill="#155DB9"/>
<path d="M90.4345 0H121.258L121.212 212.144C86.1424 212.559 50.9767 211.963 15.8977 212.197C11.3112 212.228 6.58049 212.274 2.00043 212.15L2.01674 181.363C11.569 181.096 22.4576 181.344 32.1022 181.344L90.3776 181.354L90.4345 0Z" fill="#155DB9"/>
</svg>
