# Kenney Retro Urban Kit 2.0 CC0 — geometry derived from detail-barrier-strong-damaged.glb
o detail-barrier-strong-damaged
v -0.165 0.166 -0.0959
v -0.332 0.166 -0.0959
v 0.332 0.166 -0.0959
v -0.332 0.083 -0.1245
v 0.332 0.083 -0.1245
v -0.332 0 -0.1245
v 0.332 0 -0.1245
v 0.332 0.332 -0.0729
v 0.332 0.332 0.0729
v 0.175 0.332 -0.0729
v 0.175 0.332 0.0729
v 0.0977 0.2692 -0.0816
v 0.0977 0.2692 0.0816
v 0.332 0 0.1245
v -0.332 0 0.1245
v 0.332 0.166 -0.0959
v 0.332 0 0.1245
v 0.332 0.332 -0.0729
v 0.332 0.166 0.0959
v 0.332 0.332 0.0729
v 0.332 0.083 0.1245
v 0.332 0 0.1245
v -0.332 0 0.1245
v 0.332 0.083 0.1245
v -0.332 0.083 0.1245
v 0.332 0.166 0.0959
v -0.332 0.166 0.0959
v -0.165 0.166 0.0959
v -0.165 0.166 -0.0959
v 0.332 0.166 -0.0959
v -0.0023 0.2692 -0.0816
v 0.0977 0.2692 -0.0816
v 0.332 0.166 0.0959
v -0.165 0.166 0.0959
v 0.332 0.332 0.0729
v 0.0977 0.2692 0.0816
v 0.175 0.332 0.0729
v -0.0023 0.2692 0.0816
v -0.165 0.166 0.0959
v -0.165 0.166 -0.0959
v -0.0023 0.2692 0.0816
v -0.0023 0.2692 -0.0816
v 0.0977 0.2692 0.0816
v 0.0977 0.2692 -0.0816
v -0.332 0 0.1245
v -0.332 0.166 -0.0959
v -0.332 0.166 0.0959
v -0.332 0.083 0.1245
v -0.165 0.166 -0.0959
v -0.165 0.166 0.0959
v -0.332 0.166 -0.0959
v -0.332 0.166 0.0959
f 3 2 1
f 2 5 4
f 5 2 3
f 4 7 6
f 7 4 5
f 10 9 8
f 9 10 11
f 12 11 10
f 11 12 13
f 15 7 14
f 7 15 6
f 16 7 5
f 7 16 17
f 17 16 18
f 17 18 19
f 19 18 20
f 17 19 21
f 24 23 22
f 23 24 25
f 26 25 24
f 25 26 27
f 27 26 28
f 31 30 29
f 30 31 32
f 30 32 8
f 8 32 10
f 35 34 33
f 34 35 36
f 36 35 37
f 38 34 36
f 41 40 39
f 40 41 42
f 43 42 41
f 42 43 44
f 45 4 6
f 4 45 46
f 46 45 47
f 47 45 48
f 51 50 49
f 50 51 52
