# Kenney Retro Urban Kit 2.0 CC0 — geometry-only TURN LAB copy
# Created by Kenney (www.kenney.nl)
o roof-metal-poles
v 0.5 0 -0.43 1 1 1
v 0.5 0 -0.5 1 1 1
v 0.43 0 -0.43 1 1 1
v 0.43 0 -0.5 1 1 1
v -0.43 0 -0.43 1 1 1
v -0.43 0 -0.5 1 1 1
v -0.5 0 -0.43 1 1 1
v -0.5 0 -0.5 1 1 1
v 0.5 0 0.5 1 1 1
v 0.5 0 0.43 1 1 1
v 0.43 0 0.5 1 1 1
v 0.43 0 0.43 1 1 1
v 0.5 0.7 -0.5 1 1 1
v 0.5 0.7 -0.43 1 1 1
v 0.43 0.7 -0.5 1 1 1
v 0.43 0.7 -0.43 1 1 1
v -0.43 0 0.5 1 1 1
v -0.43 0 0.43 1 1 1
v -0.5 0 0.5 1 1 1
v -0.5 0 0.43 1 1 1
v -0.43 0.7 0.43 1 1 1
v -0.43 0.7 0.5 1 1 1
v -0.5 0.7 0.43 1 1 1
v -0.5 0.7 0.5 1 1 1
v 0.5 0.7 0.43 1 1 1
v 0.5 0.7 0.5 1 1 1
v 0.43 0.7 0.43 1 1 1
v 0.43 0.7 0.5 1 1 1
v -0.43 0.7 -0.5 1 1 1
v -0.43 0.7 -0.43 1 1 1
v -0.5 0.7 -0.5 1 1 1
v -0.5 0.7 -0.43 1 1 1
f 3 2 1
f 2 3 4
f 7 6 5
f 6 7 8
f 11 10 9
f 10 11 12
f 15 14 13
f 14 15 16
f 19 18 17
f 18 19 20
f 23 22 21
f 22 23 24
f 27 26 25
f 26 27 28
f 31 30 29
f 30 31 32
f 11 27 12
f 27 11 28
f 14 2 13
f 2 14 1
f 3 15 4
f 15 3 16
f 23 18 20
f 18 23 21
f 27 10 12
f 10 27 25
f 19 23 20
f 23 19 24
f 30 7 5
f 7 30 32
f 22 18 21
f 18 22 17
f 31 6 8
f 6 31 29
f 26 11 9
f 11 26 28
f 30 6 29
f 6 30 5
f 14 3 1
f 3 14 16
f 26 10 25
f 10 26 9
f 22 19 17
f 19 22 24
f 7 31 8
f 31 7 32
f 15 2 4
f 2 15 13
