# Kenney Retro Urban Kit 2.0 CC0 — geometry-only TURN LAB copy
# Created by Kenney (www.kenney.nl)
o roof-metal-type-a
v 0.5 1.804779E-16 -0.5 1 1 1
v -0.5 1.804779E-16 -0.5 1 1 1
v 0.5 0 -0.4 1 1 1
v -0.5 0 -0.4 1 1 1
v 0.5 0 0.4 1 1 1
v -0.5 0 0.4 1 1 1
v 0.5 1.804779E-16 0.5 1 1 1
v -0.5 1.804779E-16 0.5 1 1 1
v 0.5 0.5 0 1 1 1
v -0.5 0.5 0 1 1 1
v -0.5685822 1.804779E-16 0.5 1 1 1
v -0.5685822 0.5 0 1 1 1
v -0.5 0.4 0 1 1 1
v 0.5 0.4 -1.443823E-15 1 1 1
v 0.5685822 0.5 1.804779E-15 1 1 1
v 0.5685822 1.804779E-16 0.5 1 1 1
v -0.5685822 1.804779E-16 -0.5 1 1 1
v 0.5685822 1.804779E-16 -0.5 1 1 1
f 3 2 1
f 2 3 4
f 7 6 5
f 6 7 8
f 9 8 7
f 8 9 10
f 10 11 8
f 11 10 12
f 4 10 2
f 10 4 13
f 6 10 13
f 10 6 8
f 9 5 14
f 5 9 7
f 9 3 1
f 3 9 14
f 9 16 15
f 16 9 7
f 15 16 9
f 7 9 16
f 8 11 10
f 12 10 11
f 10 12 2
f 17 2 12
f 12 2 17
f 2 12 10
f 10 1 2
f 1 10 9
f 9 18 1
f 18 9 15
f 15 9 18
f 1 18 9
f 6 14 5
f 14 6 13
f 13 3 14
f 3 13 4
