# Kenney Retro Urban Kit 2.0 CC0 — geometry derived from wall-broken-type-a.glb
o wall-broken-type-a
v 0.5 0.4 -0.035
v 0.5 0 -0.035
v 0.5 0.4 0.035
v 0.5 0 0.035
v 0.5 0 0.035
v -0.5 0 0.035
v 0.5 0.4 0.035
v 0.0937 0.2503 0.035
v 0.2543 0.3539 0.035
v 0.3316 0.4 0.035
v 0.1543 0.3539 0.035
v -0.4217 0.1419 0.035
v -0.5 0.1419 0.035
v -0.1818 0.2019 0.035
v -0.1463 0.2503 0.035
v -0.3418 0.2019 0.035
v -0.5 0 -0.035
v -0.5 0.1419 -0.035
v -0.4217 0.1419 -0.035
v 0.0937 0.2503 -0.035
v -0.1818 0.2019 -0.035
v -0.3418 0.2019 -0.035
v -0.1463 0.2503 -0.035
v 0.2543 0.3539 -0.035
v 0.1543 0.3539 -0.035
v 0.3316 0.4 -0.035
v 0.5 0.4 -0.035
v 0.5 0.4 0.035
v 0.3316 0.4 -0.035
v 0.3316 0.4 0.035
v 0.2543 0.3539 -0.035
v 0.2543 0.3539 0.035
v 0.5 0 0.035
v 0.5 0 -0.035
v -0.5 0 0.035
v -0.5 0 -0.035
v 0.1543 0.3539 -0.035
v 0.1543 0.3539 0.035
v 0.0937 0.2503 0.035
v 0.0937 0.2503 -0.035
v 0.0937 0.2503 -0.035
v 0.0937 0.2503 0.035
v -0.1463 0.2503 -0.035
v -0.1463 0.2503 0.035
v -0.1818 0.2019 0.035
v -0.1818 0.2019 -0.035
v -0.1818 0.2019 -0.035
v -0.1818 0.2019 0.035
v -0.3418 0.2019 -0.035
v -0.3418 0.2019 0.035
v -0.4217 0.1419 -0.035
v -0.4217 0.1419 0.035
v -0.5 0.1419 -0.035
v -0.5 0.1419 0.035
f 3 2 1
f 2 3 4
f 7 6 5
f 6 7 8
f 8 7 9
f 9 7 10
f 11 8 9
f 6 8 12
f 13 6 12
f 12 8 14
f 15 14 8
f 16 12 14
f 6 18 17
f 18 6 13
f 18 2 17
f 2 18 19
f 2 19 20
f 2 20 1
f 20 19 21
f 21 19 22
f 20 21 23
f 1 20 24
f 24 20 25
f 1 24 26
f 29 28 27
f 28 29 30
f 31 30 29
f 30 31 32
f 35 34 33
f 34 35 36
f 37 32 31
f 32 37 38
f 37 39 38
f 39 37 40
f 43 42 41
f 42 43 44
f 43 45 44
f 45 43 46
f 49 48 47
f 48 49 50
f 51 50 49
f 50 51 52
f 53 52 51
f 52 53 54
