<svg xmlns="http://www.w3.org/2000/svg" viewBox="0 0 512 512" role="img" aria-label="TURN">
  <defs>
    <clipPath id="app-shape">
      <rect x="18" y="18" width="476" height="476" rx="96"/>
    </clipPath>
    <filter id="soft-shadow" x="-20%" y="-20%" width="140%" height="140%">
      <feGaussianBlur stdDeviation="3"/>
    </filter>
  </defs>

  <g clip-path="url(#app-shape)">
    <rect width="512" height="512" fill="#ffd43b"/>
    <path d="M248 278 L512 212 L512 512 L210 512 Z" fill="#a7a7a7"/>

    <g transform="rotate(8 256 166)">
      <rect x="37" y="52" width="438" height="214" rx="52" fill="#08090a"/>
      <rect x="57" y="69" width="398" height="174" rx="40" fill="#fff8e8"/>
      <text x="256" y="190"
        text-anchor="middle"
        font-family="Arial Rounded MT Bold, Trebuchet MS, system-ui, sans-serif"
        font-size="113"
        font-weight="900"
        letter-spacing="-10"
        fill="#08090a">TURN</text>
    </g>

    <!-- Chunky toy-racer silhouette, based on the supplied icon artwork. -->
    <g transform="translate(75 306) rotate(-3)">
      <ellipse cx="123" cy="132" rx="132" ry="24" fill="#000" opacity=".16" filter="url(#soft-shadow)"/>
      <path d="M34 44 L88 6 L190 2 L230 49 L265 67 L281 118 L270 151 L238 164 L205 162 L188 139 L91 139 L70 162 L31 157 L9 135 L16 84 Z" fill="#08090a"/>
      <path d="M40 49 L91 16 L179 14 L151 49 Z" fill="#d99218"/>
      <path d="M31 91 L141 88 L179 129 L72 136 L32 128 Z" fill="#c98216"/>
      <path d="M154 49 L196 18 L228 54 L249 67 L206 70 Z" fill="#121212"/>
      <path d="M206 76 L252 73 L266 115 L234 124 L218 105 Z" fill="#202020"/>
      <path d="M32 91 L141 88" stroke="#f6a923" stroke-width="10" stroke-linecap="round"/>
      <path d="M203 89 L247 86" stroke="#f2b43c" stroke-width="8" stroke-linecap="round"/>
      <circle cx="75" cy="142" r="31" fill="#050505"/>
      <circle cx="75" cy="142" r="15" fill="#313131"/>
      <circle cx="224" cy="142" r="31" fill="#050505"/>
      <circle cx="224" cy="142" r="15" fill="#313131"/>
    </g>
  </g>

  <rect x="18" y="18" width="476" height="476" rx="96" fill="none" stroke="#08090a" stroke-width="20"/>
</svg>
